PathFileType	4	(X/Y/Z)	output.trc
DataRate	CameraRate	NumFrames	NumMarkers	Units	OrigDataRate	OrigDataStartFrame	OrigNumFrames
200	200	4	68	mm	200	111	295
Frame#	Time			LASI			RASI			RSACR			LSACR			USACR			LBAR			RBAR			RHEE			RMT1			RMT5			RMT2			LHEE			LMT1			LMT5			LMT2			LMMAL			LMFC			LLFC			LLMAL			LTIB4			LTIB2			LTIB3			LTIB1			RMMAL			RMFC			RLFC			RLMAL			RTIB1			RTIB2			RTIB3			RTHI1			RTHI4			RTHI3			RTHI2			LTHI1			LTHI4			LTHI3			LTHI2			FHD			LBHD			RBHD			C7			T10			CLAV			LSHO			RSHO			LRAD			LUL			LRFIN			RRAD			RUL			RUFIN			RLEP			RMEP			LLEP			LMEP			LDUPA			LMUPA			LUUPA			RDUPA			RUUPA			RMUPA			LHJC			RHJC			LKJC			RKJC			LAJC			RAJC
		X1	Y1	Z1	X2	Y2	Z2	X3	Y3	Z3	X4	Y4	Z4	X5	Y5	Z5	X6	Y6	Z6	X7	Y7	Z7	X8	Y8	Z8	X9	Y9	Z9	X10	Y10	Z10	X11	Y11	Z11	X12	Y12	Z12	X13	Y13	Z13	X14	Y14	Z14	X15	Y15	Z15	X16	Y16	Z16	X17	Y17	Z17	X18	Y18	Z18	X19	Y19	Z19	X20	Y20	Z20	X21	Y21	Z21	X22	Y22	Z22	X23	Y23	Z23	X24	Y24	Z24	X25	Y25	Z25	X26	Y26	Z26	X27	Y27	Z27	X28	Y28	Z28	X29	Y29	Z29	X30	Y30	Z30	X31	Y31	Z31	X32	Y32	Z32	X33	Y33	Z33	X34	Y34	Z34	X35	Y35	Z35	X36	Y36	Z36	X37	Y37	Z37	X38	Y38	Z38	X39	Y39	Z39	X40	Y40	Z40	X41	Y41	Z41	X42	Y42	Z42	X43	Y43	Z43	X44	Y44	Z44	X45	Y45	Z45	X46	Y46	Z46	X47	Y47	Z47	X48	Y48	Z48	X49	Y49	Z49	X50	Y50	Z50	X51	Y51	Z51	X52	Y52	Z52	X53	Y53	Z53	X54	Y54	Z54	X55	Y55	Z55	X56	Y56	Z56	X57	Y57	Z57	X58	Y58	Z58	X59	Y59	Z59	X60	Y60	Z60	X61	Y61	Z61	X62	Y62	Z62	X63	Y63	Z63	X64	Y64	Z64	X65	Y65	Z65	X66	Y66	Z66	X67	Y67	Z67	X68	Y68	Z68
110	0.550000	132.816299	918.032104	-762.275696	128.540176	918.637634	-984.703430	308.311859	950.244751	-912.525024	307.487244	953.469788	-852.608948	296.627106	966.599854	-882.471008	1270.853394	26.314863	346.466370	1226.414673	26.289854	-1876.946045	323.062775	39.870327	-1019.710205	128.149002	43.464806	-1043.338989	165.003433	34.983932	-1113.781616	140.175171	42.694130	-1079.971558	326.266266	45.850777	-745.176880	134.384338	46.343452	-736.487427	169.962250	33.445339	-662.809143	143.173477	45.933281	-698.069702	276.666260	72.954559	-778.701050	232.423218	456.884369	-829.168640	218.831268	453.956909	-721.551758	278.776001	69.158279	-701.008179	290.108856	209.672577	-691.561279	313.581512	271.349640	-691.330872	263.222687	268.215393	-684.614807	301.344025	314.382141	-687.204895	275.167297	68.374435	-994.120789	234.834106	446.573608	-935.414978	220.039963	461.316833	-1041.291870	284.653290	72.258690	-1068.566040	256.708435	319.273773	-1082.748901	307.165344	314.112030	-1077.239746	276.300659	256.180481	-1081.353149	240.872665	783.886780	-1060.174927	241.852310	635.507690	-1066.361816	190.680710	636.982361	-1066.640747	218.282578	697.199341	-1070.245239	237.668564	778.889832	-698.875183	235.638046	646.507324	-694.807190	185.104660	637.398621	-693.285645	199.474152	701.148499	-689.433777	130.753311	1593.010864	-775.388367	241.444046	1575.788574	-786.618286	252.756821	1571.273560	-910.151855	262.658936	1391.231445	-858.125793	284.672668	1007.473694	-877.552917	140.128204	1328.457275	-873.037598	244.171661	1380.851929	-725.224976	236.310516	1396.797852	-987.071228	165.397949	1358.057129	-222.867340	206.036911	1353.640137	-222.474792	152.120834	1337.449341	-130.850967	241.863480	1389.071045	-1500.910889	288.746368	1382.848511	-1499.905151	236.387558	1391.307983	-1591.114990	293.412323	1329.688843	-1271.447266	255.058502	1296.197510	-1272.044556	220.859756	1300.166260	-454.239380	179.874237	1277.840942	-466.955505	236.965637	1353.837402	-506.244934	201.146179	1371.512817	-536.766174	238.075485	1362.449951	-585.437744	266.338806	1382.173340	-1205.925781	256.944672	1383.881348	-1144.240601	216.171432	1385.307251	-1212.529907	225.990707	883.463928	-771.253296	225.908234	884.256409	-985.801147	225.627243	455.420654	-775.360229	227.437042	453.945221	-988.353394	277.721130	71.056419	-739.854614	279.910278	70.316559	-1031.343384
111	0.555000	132.807510	918.046936	-762.275879	128.527527	918.640869	-984.694397	308.299835	950.233582	-912.530273	307.484070	953.455566	-852.610535	296.617889	966.591797	-882.477051	1270.851807	26.306890	346.455109	1226.420898	26.300085	-1876.952271	323.080475	39.872849	-1019.706848	128.149155	43.462402	-1043.341919	165.064468	34.817596	-1113.654175	140.176773	42.694088	-1079.973022	326.256012	45.844288	-745.178284	134.380188	46.347996	-736.486877	170.153061	33.269478	-662.859558	143.171661	45.927425	-698.061401	276.664520	72.963623	-778.712769	232.412460	456.892639	-829.164551	218.839386	453.954926	-721.547546	278.789764	69.154991	-701.011658	290.121399	209.691025	-691.539978	313.560059	271.382538	-691.323792	263.243500	268.223114	-684.603027	301.349335	314.378571	-687.206665	275.164368	68.375839	-994.113831	234.828537	446.567383	-935.421326	220.024429	461.320099	-1041.294434	284.647552	72.262497	-1068.568726	256.725037	319.269867	-1082.737793	307.160950	314.101501	-1077.237549	276.300842	256.186981	-1081.355103	240.853241	783.884277	-1060.168579	241.845871	635.493408	-1066.328369	190.672134	636.996765	-1066.651123	218.358994	697.096802	-1070.170410	237.661636	778.884766	-698.864746	235.747055	646.712769	-694.668274	185.118851	637.400391	-693.271240	199.421448	701.148987	-689.651245	130.765671	1593.017700	-775.404846	241.452591	1575.768799	-786.639526	252.758820	1571.257324	-910.167419	262.664978	1391.231323	-858.143127	284.671783	1007.470337	-877.549377	140.134064	1328.447876	-873.043396	244.177521	1380.848877	-725.238708	236.315674	1396.789795	-987.082825	165.439194	1358.088745	-222.877777	206.090424	1353.671753	-222.477707	152.145081	1337.600586	-130.789047	241.885147	1389.073730	-1500.920288	288.761597	1382.845947	-1499.907837	236.405136	1391.293579	-1591.113892	293.415710	1329.676147	-1271.465576	255.076157	1296.194580	-1272.057861	220.890259	1300.190674	-454.254883	179.912766	1277.859131	-466.961182	236.989899	1353.846802	-506.260559	201.173111	1371.526978	-536.774963	238.108185	1362.470703	-585.453125	266.359985	1382.152466	-1205.930664	256.962646	1383.866943	-1144.247437	216.160248	1385.319092	-1212.533203	225.984406	883.462402	-771.250366	225.893539	884.252930	-985.797729	225.625916	455.423767	-775.356079	227.426483	453.943726	-988.357910	277.727142	71.059311	-739.862183	279.905945	70.319168	-1031.341309
112	0.560000	132.806503	918.051086	-762.259705	128.520737	918.637268	-984.689026	308.298920	950.233887	-912.521667	307.473816	953.445984	-852.608093	296.614166	966.585510	-882.459351	1270.848389	26.307962	346.486298	1226.414917	26.307741	-1876.964966	323.066864	39.864498	-1019.703613	128.148300	43.459064	-1043.357178	165.061325	34.836514	-1113.665161	140.176865	42.694786	-1079.970093	326.263702	45.851490	-745.170044	134.387024	46.351631	-736.490723	170.037048	33.374344	-662.828674	143.163422	45.932186	-698.066345	276.666779	72.964058	-778.707886	232.415314	456.897034	-829.155457	218.835861	453.956604	-721.532227	278.782593	69.161964	-701.015503	290.110718	209.687881	-691.543579	313.569672	271.379272	-691.300598	263.230316	268.216919	-684.593018	301.345154	314.366455	-687.201965	275.170837	68.380486	-994.120728	234.837814	446.577850	-935.408875	220.022415	461.313446	-1041.284546	284.644592	72.267914	-1068.569092	256.725891	319.267242	-1082.730469	307.162750	314.100952	-1077.236938	276.275116	256.201508	-1081.361450	240.836197	783.879395	-1060.163818	241.990036	635.324951	-1065.992920	190.673141	636.995239	-1066.652222	218.350861	697.072083	-1070.178223	237.654495	778.892456	-698.852539	235.746002	646.702209	-694.649841	185.107681	637.406738	-693.256104	199.415512	701.161133	-689.645203	130.804138	1593.014038	-775.417786	241.459290	1575.753906	-786.653564	252.762512	1571.253296	-910.199097	262.679596	1391.228027	-858.148804	284.660400	1007.464478	-877.548706	140.130142	1328.449097	-873.054504	244.196228	1380.861206	-725.255859	236.319687	1396.780273	-987.093384	165.475357	1358.131836	-222.886703	206.137680	1353.715332	-222.486649	152.201569	1337.552856	-130.877228	241.902100	1389.073608	-1500.932861	288.773682	1382.845581	-1499.919067	236.425552	1391.300781	-1591.125366	293.427490	1329.666870	-1271.464233	255.088257	1296.187988	-1272.065308	220.932526	1300.207642	-454.277374	179.948837	1277.881104	-466.960724	236.995651	1353.869141	-506.278748	201.206421	1371.535645	-536.794617	238.132843	1362.475952	-585.468323	266.376801	1382.144653	-1205.935425	256.980133	1383.861328	-1144.258301	216.161987	1385.411255	-1212.586548	225.978271	883.463196	-771.240112	225.885284	884.250183	-985.791504	225.625580	455.426819	-775.343872	227.430115	453.945648	-988.346680	277.724670	71.063011	-739.861694	279.907715	70.324203	-1031.344971
113	0.565000	132.803146	918.048401	-762.256042	128.523376	918.636292	-984.677368	308.288879	950.228027	-912.515198	307.476379	953.446655	-852.598877	296.613739	966.579163	-882.455994	1270.856812	26.317213	346.475952	1226.416138	26.301525	-1876.929810	323.075348	39.869522	-1019.696289	128.157852	43.468300	-1043.334351	165.062775	34.835045	-1113.669434	140.175537	42.695705	-1079.971436	326.264557	45.860870	-745.182068	134.385254	46.347752	-736.488953	170.040436	33.378139	-662.831421	143.171936	45.933613	-698.061584	276.669098	72.968086	-778.703796	232.410294	456.895264	-829.151855	218.842529	453.952484	-721.517761	278.788696	69.162262	-701.008545	290.107605	209.695114	-691.543274	313.573425	271.371002	-691.326904	263.235107	268.222137	-684.599121	301.348328	314.376984	-687.191223	275.167847	68.382736	-994.107544	234.830811	446.575562	-935.407288	220.027298	461.306763	-1041.266235	284.647705	72.268417	-1068.566895	256.711609	319.282532	-1082.739014	307.166595	314.101440	-1077.228516	276.286194	256.182922	-1081.343506	240.824158	783.882080	-1060.155762	241.975037	635.318054	-1065.967163	190.668686	636.999817	-1066.636841	218.334229	697.077698	-1070.177124	237.661331	778.901428	-698.850830	235.585220	646.490051	-695.028870	185.103943	637.420349	-693.244324	199.405685	701.164795	-689.634766	130.800507	1593.030396	-775.445129	241.462631	1575.761108	-786.685852	252.780807	1571.251587	-910.218506	262.680023	1391.234863	-858.174805	284.665771	1007.459045	-877.543701	140.135391	1328.438965	-873.056274	244.219406	1380.882690	-725.265686	236.330673	1396.779175	-987.104553	165.523697	1358.160400	-222.892960	206.172394	1353.760254	-222.497864	152.262390	1337.590698	-130.866989	241.918106	1389.072632	-1500.941650	288.772034	1382.839478	-1499.931763	236.438995	1391.291992	-1591.125122	293.422180	1329.661743	-1271.479370	255.083389	1296.182861	-1272.077881	220.961365	1300.230225	-454.274109	179.983475	1277.900757	-466.967712	237.019104	1353.888794	-506.298798	201.203796	1371.546875	-536.809937	238.210037	1362.298218	-585.511963	266.407288	1382.128418	-1205.940796	256.999664	1383.847290	-1144.272705	216.223114	1385.326904	-1212.548584	225.980286	883.465515	-771.235229	225.878799	884.248779	-985.782776	225.626404	455.423889	-775.334839	227.429047	453.941162	-988.336792	277.728882	71.065170	-739.856201	279.907776	70.325577	-1031.337158
